#N canvas 0 22 1440 802 10;
#N canvas 0 22 1440 802 miditobyte 0;
#X text 30 197 C0-B0;
#X msg 68 262 1 126;
#X msg 113 262 1 104;
#X msg 159 262 1 84;
#X msg 202 262 1 65;
#X msg 248 262 1 47;
#X msg 287 262 1 30;
#X msg 328 262 1 14;
#X msg 368 262 0 255;
#X msg 419 262 0 240;
#X msg 465 262 0 227;
#X msg 511 262 0 214;
#X msg 559 262 0 202;
#X msg 636 262 0 191;
#X msg 681 262 0 180;
#X msg 727 262 0 170;
#X msg 770 262 0 160;
#X msg 816 262 0 151;
#X msg 855 262 0 143;
#X msg 896 262 0 135;
#X msg 936 262 0 127;
#X msg 987 262 0 120;
#X msg 1033 262 0 113;
#X msg 1079 262 0 107;
#X msg 1127 262 0 101;
#X text 598 197 C1-B1;
#X msg 1187 262 0 95;
#X msg 1232 262 0 90;
#X msg 1278 262 0 85;
#X msg 1321 262 0 80;
#X msg 1367 262 0 75;
#X msg 1406 262 0 71;
#X msg 1447 262 0 67;
#X msg 1487 262 0 63;
#X msg 1538 262 0 60;
#X msg 1584 262 0 56;
#X msg 1630 262 0 53;
#X msg 1678 262 0 50;
#X text 1149 197 C2-B2;
#X msg 1764 261 0 47;
#X msg 1809 261 0 45;
#X msg 1855 261 0 42;
#X msg 1898 261 0 40;
#X msg 1944 261 0 37;
#X msg 1983 261 0 35;
#X msg 2024 261 0 33;
#X msg 2064 261 0 31;
#X msg 2115 261 0 30;
#X msg 2161 261 0 28;
#X msg 2207 261 0 26;
#X msg 2255 261 0 25;
#X text 1726 196 C3-B3;
#X obj 68 453 outlet;
#X obj 69 92 inlet;
#X obj 69 197 select 24 25 26 27 28 29 30 31 32 33 34 35;
#X obj 637 197 select 36 37 38 39 40 41 42 43 44 45 46 47;
#X obj 1188 197 select 48 49 50 51 52 53 54 55 56 57 58 59;
#X obj 1765 196 select 60 61 62 63 64 65 66 67 68 69 70 71;
#X obj 2372 57 inlet;
#X msg 2374 171 0 0;
#X connect 1 0 52 0;
#X connect 2 0 52 0;
#X connect 3 0 52 0;
#X connect 4 0 52 0;
#X connect 5 0 52 0;
#X connect 6 0 52 0;
#X connect 7 0 52 0;
#X connect 8 0 52 0;
#X connect 9 0 52 0;
#X connect 10 0 52 0;
#X connect 11 0 52 0;
#X connect 12 0 52 0;
#X connect 13 0 52 0;
#X connect 14 0 52 0;
#X connect 15 0 52 0;
#X connect 16 0 52 0;
#X connect 17 0 52 0;
#X connect 18 0 52 0;
#X connect 19 0 52 0;
#X connect 20 0 52 0;
#X connect 21 0 52 0;
#X connect 22 0 52 0;
#X connect 23 0 52 0;
#X connect 24 0 52 0;
#X connect 26 0 52 0;
#X connect 27 0 52 0;
#X connect 28 0 52 0;
#X connect 29 0 52 0;
#X connect 30 0 52 0;
#X connect 31 0 52 0;
#X connect 32 0 52 0;
#X connect 33 0 52 0;
#X connect 34 0 52 0;
#X connect 35 0 52 0;
#X connect 36 0 52 0;
#X connect 37 0 52 0;
#X connect 39 0 52 0;
#X connect 40 0 52 0;
#X connect 41 0 52 0;
#X connect 42 0 52 0;
#X connect 43 0 52 0;
#X connect 44 0 52 0;
#X connect 45 0 52 0;
#X connect 46 0 52 0;
#X connect 47 0 52 0;
#X connect 48 0 52 0;
#X connect 49 0 52 0;
#X connect 50 0 52 0;
#X connect 53 0 54 0;
#X connect 53 0 55 0;
#X connect 53 0 56 0;
#X connect 53 0 57 0;
#X connect 54 0 1 0;
#X connect 54 1 2 0;
#X connect 54 2 3 0;
#X connect 54 3 4 0;
#X connect 54 4 5 0;
#X connect 54 5 6 0;
#X connect 54 6 7 0;
#X connect 54 7 8 0;
#X connect 54 8 9 0;
#X connect 54 9 10 0;
#X connect 54 10 11 0;
#X connect 54 11 12 0;
#X connect 55 0 13 0;
#X connect 55 1 14 0;
#X connect 55 2 15 0;
#X connect 55 3 16 0;
#X connect 55 4 17 0;
#X connect 55 5 18 0;
#X connect 55 6 19 0;
#X connect 55 7 20 0;
#X connect 55 8 21 0;
#X connect 55 9 22 0;
#X connect 55 10 23 0;
#X connect 55 11 24 0;
#X connect 56 0 26 0;
#X connect 56 1 27 0;
#X connect 56 2 28 0;
#X connect 56 3 29 0;
#X connect 56 4 30 0;
#X connect 56 5 31 0;
#X connect 56 6 32 0;
#X connect 56 7 33 0;
#X connect 56 8 34 0;
#X connect 56 9 35 0;
#X connect 56 10 36 0;
#X connect 56 11 37 0;
#X connect 57 0 39 0;
#X connect 57 1 40 0;
#X connect 57 2 41 0;
#X connect 57 3 42 0;
#X connect 57 4 43 0;
#X connect 57 5 44 0;
#X connect 57 6 45 0;
#X connect 57 7 46 0;
#X connect 57 8 47 0;
#X connect 57 9 48 0;
#X connect 57 10 49 0;
#X connect 57 11 50 0;
#X connect 58 0 59 0;
#X connect 59 0 52 0;
#X restore 151 -632 pd miditobyte;
#X obj 150 -122 comport 3 9600;
#X msg 279 -276 stopbit 1;
#X msg 150 -276 parity 0;
#X msg 221 -276 bits 8;
#X obj 150 -325 t b b b;
#X obj 150 -358 loadbang;
#X msg 151 -582 2 \$1 \$2;
#X obj 367 -276 r tocomport;
#X msg 503 -308 100 0 0;
#X obj 503 -336 loadbang;
#X msg 62 -224 ports;
#X obj 151 -715 notein 1;
#X obj 151 -676 stripnote;
#X obj 151 -541 s tocomport;
#N canvas 0 22 1440 802 miditobyte 0;
#X text 30 197 C0-B0;
#X msg 68 262 1 126;
#X msg 113 262 1 104;
#X msg 159 262 1 84;
#X msg 202 262 1 65;
#X msg 248 262 1 47;
#X msg 287 262 1 30;
#X msg 328 262 1 14;
#X msg 368 262 0 255;
#X msg 419 262 0 240;
#X msg 465 262 0 227;
#X msg 511 262 0 214;
#X msg 559 262 0 202;
#X msg 636 262 0 191;
#X msg 681 262 0 180;
#X msg 727 262 0 170;
#X msg 770 262 0 160;
#X msg 816 262 0 151;
#X msg 855 262 0 143;
#X msg 896 262 0 135;
#X msg 936 262 0 127;
#X msg 987 262 0 120;
#X msg 1033 262 0 113;
#X msg 1079 262 0 107;
#X msg 1127 262 0 101;
#X text 598 197 C1-B1;
#X msg 1187 262 0 95;
#X msg 1232 262 0 90;
#X msg 1278 262 0 85;
#X msg 1321 262 0 80;
#X msg 1367 262 0 75;
#X msg 1406 262 0 71;
#X msg 1447 262 0 67;
#X msg 1487 262 0 63;
#X msg 1538 262 0 60;
#X msg 1584 262 0 56;
#X msg 1630 262 0 53;
#X msg 1678 262 0 50;
#X text 1149 197 C2-B2;
#X msg 1764 261 0 47;
#X msg 1809 261 0 45;
#X msg 1855 261 0 42;
#X msg 1898 261 0 40;
#X msg 1944 261 0 37;
#X msg 1983 261 0 35;
#X msg 2024 261 0 33;
#X msg 2064 261 0 31;
#X msg 2115 261 0 30;
#X msg 2161 261 0 28;
#X msg 2207 261 0 26;
#X msg 2255 261 0 25;
#X text 1726 196 C3-B3;
#X obj 68 453 outlet;
#X obj 69 92 inlet;
#X obj 69 197 select 24 25 26 27 28 29 30 31 32 33 34 35;
#X obj 637 197 select 36 37 38 39 40 41 42 43 44 45 46 47;
#X obj 1188 197 select 48 49 50 51 52 53 54 55 56 57 58 59;
#X obj 1765 196 select 60 61 62 63 64 65 66 67 68 69 70 71;
#X obj 2372 57 inlet;
#X msg 2374 171 0 0;
#X connect 1 0 52 0;
#X connect 2 0 52 0;
#X connect 3 0 52 0;
#X connect 4 0 52 0;
#X connect 5 0 52 0;
#X connect 6 0 52 0;
#X connect 7 0 52 0;
#X connect 8 0 52 0;
#X connect 9 0 52 0;
#X connect 10 0 52 0;
#X connect 11 0 52 0;
#X connect 12 0 52 0;
#X connect 13 0 52 0;
#X connect 14 0 52 0;
#X connect 15 0 52 0;
#X connect 16 0 52 0;
#X connect 17 0 52 0;
#X connect 18 0 52 0;
#X connect 19 0 52 0;
#X connect 20 0 52 0;
#X connect 21 0 52 0;
#X connect 22 0 52 0;
#X connect 23 0 52 0;
#X connect 24 0 52 0;
#X connect 26 0 52 0;
#X connect 27 0 52 0;
#X connect 28 0 52 0;
#X connect 29 0 52 0;
#X connect 30 0 52 0;
#X connect 31 0 52 0;
#X connect 32 0 52 0;
#X connect 33 0 52 0;
#X connect 34 0 52 0;
#X connect 35 0 52 0;
#X connect 36 0 52 0;
#X connect 37 0 52 0;
#X connect 39 0 52 0;
#X connect 40 0 52 0;
#X connect 41 0 52 0;
#X connect 42 0 52 0;
#X connect 43 0 52 0;
#X connect 44 0 52 0;
#X connect 45 0 52 0;
#X connect 46 0 52 0;
#X connect 47 0 52 0;
#X connect 48 0 52 0;
#X connect 49 0 52 0;
#X connect 50 0 52 0;
#X connect 53 0 54 0;
#X connect 53 0 55 0;
#X connect 53 0 56 0;
#X connect 53 0 57 0;
#X connect 54 0 1 0;
#X connect 54 1 2 0;
#X connect 54 2 3 0;
#X connect 54 3 4 0;
#X connect 54 4 5 0;
#X connect 54 5 6 0;
#X connect 54 6 7 0;
#X connect 54 7 8 0;
#X connect 54 8 9 0;
#X connect 54 9 10 0;
#X connect 54 10 11 0;
#X connect 54 11 12 0;
#X connect 55 0 13 0;
#X connect 55 1 14 0;
#X connect 55 2 15 0;
#X connect 55 3 16 0;
#X connect 55 4 17 0;
#X connect 55 5 18 0;
#X connect 55 6 19 0;
#X connect 55 7 20 0;
#X connect 55 8 21 0;
#X connect 55 9 22 0;
#X connect 55 10 23 0;
#X connect 55 11 24 0;
#X connect 56 0 26 0;
#X connect 56 1 27 0;
#X connect 56 2 28 0;
#X connect 56 3 29 0;
#X connect 56 4 30 0;
#X connect 56 5 31 0;
#X connect 56 6 32 0;
#X connect 56 7 33 0;
#X connect 56 8 34 0;
#X connect 56 9 35 0;
#X connect 56 10 36 0;
#X connect 56 11 37 0;
#X connect 57 0 39 0;
#X connect 57 1 40 0;
#X connect 57 2 41 0;
#X connect 57 3 42 0;
#X connect 57 4 43 0;
#X connect 57 5 44 0;
#X connect 57 6 45 0;
#X connect 57 7 46 0;
#X connect 57 8 47 0;
#X connect 57 9 48 0;
#X connect 57 10 49 0;
#X connect 57 11 50 0;
#X connect 58 0 59 0;
#X connect 59 0 52 0;
#X restore 253 -633 pd miditobyte;
#X obj 253 -677 stripnote;
#X obj 253 -542 s tocomport;
#X obj 253 -716 notein 2;
#X msg 253 -583 4 \$1 \$2;
#N canvas 0 22 1440 802 miditobyte 0;
#X text 30 197 C0-B0;
#X msg 68 262 1 126;
#X msg 113 262 1 104;
#X msg 159 262 1 84;
#X msg 202 262 1 65;
#X msg 248 262 1 47;
#X msg 287 262 1 30;
#X msg 328 262 1 14;
#X msg 368 262 0 255;
#X msg 419 262 0 240;
#X msg 465 262 0 227;
#X msg 511 262 0 214;
#X msg 559 262 0 202;
#X msg 636 262 0 191;
#X msg 681 262 0 180;
#X msg 727 262 0 170;
#X msg 770 262 0 160;
#X msg 816 262 0 151;
#X msg 855 262 0 143;
#X msg 896 262 0 135;
#X msg 936 262 0 127;
#X msg 987 262 0 120;
#X msg 1033 262 0 113;
#X msg 1079 262 0 107;
#X msg 1127 262 0 101;
#X text 598 197 C1-B1;
#X msg 1187 262 0 95;
#X msg 1232 262 0 90;
#X msg 1278 262 0 85;
#X msg 1321 262 0 80;
#X msg 1367 262 0 75;
#X msg 1406 262 0 71;
#X msg 1447 262 0 67;
#X msg 1487 262 0 63;
#X msg 1538 262 0 60;
#X msg 1584 262 0 56;
#X msg 1630 262 0 53;
#X msg 1678 262 0 50;
#X text 1149 197 C2-B2;
#X msg 1764 261 0 47;
#X msg 1809 261 0 45;
#X msg 1855 261 0 42;
#X msg 1898 261 0 40;
#X msg 1944 261 0 37;
#X msg 1983 261 0 35;
#X msg 2024 261 0 33;
#X msg 2064 261 0 31;
#X msg 2115 261 0 30;
#X msg 2161 261 0 28;
#X msg 2207 261 0 26;
#X msg 2255 261 0 25;
#X text 1726 196 C3-B3;
#X obj 68 453 outlet;
#X obj 69 92 inlet;
#X obj 69 197 select 24 25 26 27 28 29 30 31 32 33 34 35;
#X obj 637 197 select 36 37 38 39 40 41 42 43 44 45 46 47;
#X obj 1188 197 select 48 49 50 51 52 53 54 55 56 57 58 59;
#X obj 1765 196 select 60 61 62 63 64 65 66 67 68 69 70 71;
#X obj 2372 57 inlet;
#X msg 2374 171 0 0;
#X connect 1 0 52 0;
#X connect 2 0 52 0;
#X connect 3 0 52 0;
#X connect 4 0 52 0;
#X connect 5 0 52 0;
#X connect 6 0 52 0;
#X connect 7 0 52 0;
#X connect 8 0 52 0;
#X connect 9 0 52 0;
#X connect 10 0 52 0;
#X connect 11 0 52 0;
#X connect 12 0 52 0;
#X connect 13 0 52 0;
#X connect 14 0 52 0;
#X connect 15 0 52 0;
#X connect 16 0 52 0;
#X connect 17 0 52 0;
#X connect 18 0 52 0;
#X connect 19 0 52 0;
#X connect 20 0 52 0;
#X connect 21 0 52 0;
#X connect 22 0 52 0;
#X connect 23 0 52 0;
#X connect 24 0 52 0;
#X connect 26 0 52 0;
#X connect 27 0 52 0;
#X connect 28 0 52 0;
#X connect 29 0 52 0;
#X connect 30 0 52 0;
#X connect 31 0 52 0;
#X connect 32 0 52 0;
#X connect 33 0 52 0;
#X connect 34 0 52 0;
#X connect 35 0 52 0;
#X connect 36 0 52 0;
#X connect 37 0 52 0;
#X connect 39 0 52 0;
#X connect 40 0 52 0;
#X connect 41 0 52 0;
#X connect 42 0 52 0;
#X connect 43 0 52 0;
#X connect 44 0 52 0;
#X connect 45 0 52 0;
#X connect 46 0 52 0;
#X connect 47 0 52 0;
#X connect 48 0 52 0;
#X connect 49 0 52 0;
#X connect 50 0 52 0;
#X connect 53 0 54 0;
#X connect 53 0 55 0;
#X connect 53 0 56 0;
#X connect 53 0 57 0;
#X connect 54 0 1 0;
#X connect 54 1 2 0;
#X connect 54 2 3 0;
#X connect 54 3 4 0;
#X connect 54 4 5 0;
#X connect 54 5 6 0;
#X connect 54 6 7 0;
#X connect 54 7 8 0;
#X connect 54 8 9 0;
#X connect 54 9 10 0;
#X connect 54 10 11 0;
#X connect 54 11 12 0;
#X connect 55 0 13 0;
#X connect 55 1 14 0;
#X connect 55 2 15 0;
#X connect 55 3 16 0;
#X connect 55 4 17 0;
#X connect 55 5 18 0;
#X connect 55 6 19 0;
#X connect 55 7 20 0;
#X connect 55 8 21 0;
#X connect 55 9 22 0;
#X connect 55 10 23 0;
#X connect 55 11 24 0;
#X connect 56 0 26 0;
#X connect 56 1 27 0;
#X connect 56 2 28 0;
#X connect 56 3 29 0;
#X connect 56 4 30 0;
#X connect 56 5 31 0;
#X connect 56 6 32 0;
#X connect 56 7 33 0;
#X connect 56 8 34 0;
#X connect 56 9 35 0;
#X connect 56 10 36 0;
#X connect 56 11 37 0;
#X connect 57 0 39 0;
#X connect 57 1 40 0;
#X connect 57 2 41 0;
#X connect 57 3 42 0;
#X connect 57 4 43 0;
#X connect 57 5 44 0;
#X connect 57 6 45 0;
#X connect 57 7 46 0;
#X connect 57 8 47 0;
#X connect 57 9 48 0;
#X connect 57 10 49 0;
#X connect 57 11 50 0;
#X connect 58 0 59 0;
#X connect 59 0 52 0;
#X restore 365 -632 pd miditobyte;
#X obj 365 -676 stripnote;
#X obj 365 -541 s tocomport;
#N canvas 0 22 1440 802 miditobyte 0;
#X text 30 197 C0-B0;
#X msg 68 262 1 126;
#X msg 113 262 1 104;
#X msg 159 262 1 84;
#X msg 202 262 1 65;
#X msg 248 262 1 47;
#X msg 287 262 1 30;
#X msg 328 262 1 14;
#X msg 368 262 0 255;
#X msg 419 262 0 240;
#X msg 465 262 0 227;
#X msg 511 262 0 214;
#X msg 559 262 0 202;
#X msg 636 262 0 191;
#X msg 681 262 0 180;
#X msg 727 262 0 170;
#X msg 770 262 0 160;
#X msg 816 262 0 151;
#X msg 855 262 0 143;
#X msg 896 262 0 135;
#X msg 936 262 0 127;
#X msg 987 262 0 120;
#X msg 1033 262 0 113;
#X msg 1079 262 0 107;
#X msg 1127 262 0 101;
#X text 598 197 C1-B1;
#X msg 1187 262 0 95;
#X msg 1232 262 0 90;
#X msg 1278 262 0 85;
#X msg 1321 262 0 80;
#X msg 1367 262 0 75;
#X msg 1406 262 0 71;
#X msg 1447 262 0 67;
#X msg 1487 262 0 63;
#X msg 1538 262 0 60;
#X msg 1584 262 0 56;
#X msg 1630 262 0 53;
#X msg 1678 262 0 50;
#X text 1149 197 C2-B2;
#X msg 1764 261 0 47;
#X msg 1809 261 0 45;
#X msg 1855 261 0 42;
#X msg 1898 261 0 40;
#X msg 1944 261 0 37;
#X msg 1983 261 0 35;
#X msg 2024 261 0 33;
#X msg 2064 261 0 31;
#X msg 2115 261 0 30;
#X msg 2161 261 0 28;
#X msg 2207 261 0 26;
#X msg 2255 261 0 25;
#X text 1726 196 C3-B3;
#X obj 68 453 outlet;
#X obj 69 92 inlet;
#X obj 69 197 select 24 25 26 27 28 29 30 31 32 33 34 35;
#X obj 637 197 select 36 37 38 39 40 41 42 43 44 45 46 47;
#X obj 1188 197 select 48 49 50 51 52 53 54 55 56 57 58 59;
#X obj 1765 196 select 60 61 62 63 64 65 66 67 68 69 70 71;
#X obj 2372 57 inlet;
#X msg 2374 171 0 0;
#X connect 1 0 52 0;
#X connect 2 0 52 0;
#X connect 3 0 52 0;
#X connect 4 0 52 0;
#X connect 5 0 52 0;
#X connect 6 0 52 0;
#X connect 7 0 52 0;
#X connect 8 0 52 0;
#X connect 9 0 52 0;
#X connect 10 0 52 0;
#X connect 11 0 52 0;
#X connect 12 0 52 0;
#X connect 13 0 52 0;
#X connect 14 0 52 0;
#X connect 15 0 52 0;
#X connect 16 0 52 0;
#X connect 17 0 52 0;
#X connect 18 0 52 0;
#X connect 19 0 52 0;
#X connect 20 0 52 0;
#X connect 21 0 52 0;
#X connect 22 0 52 0;
#X connect 23 0 52 0;
#X connect 24 0 52 0;
#X connect 26 0 52 0;
#X connect 27 0 52 0;
#X connect 28 0 52 0;
#X connect 29 0 52 0;
#X connect 30 0 52 0;
#X connect 31 0 52 0;
#X connect 32 0 52 0;
#X connect 33 0 52 0;
#X connect 34 0 52 0;
#X connect 35 0 52 0;
#X connect 36 0 52 0;
#X connect 37 0 52 0;
#X connect 39 0 52 0;
#X connect 40 0 52 0;
#X connect 41 0 52 0;
#X connect 42 0 52 0;
#X connect 43 0 52 0;
#X connect 44 0 52 0;
#X connect 45 0 52 0;
#X connect 46 0 52 0;
#X connect 47 0 52 0;
#X connect 48 0 52 0;
#X connect 49 0 52 0;
#X connect 50 0 52 0;
#X connect 53 0 54 0;
#X connect 53 0 55 0;
#X connect 53 0 56 0;
#X connect 53 0 57 0;
#X connect 54 0 1 0;
#X connect 54 1 2 0;
#X connect 54 2 3 0;
#X connect 54 3 4 0;
#X connect 54 4 5 0;
#X connect 54 5 6 0;
#X connect 54 6 7 0;
#X connect 54 7 8 0;
#X connect 54 8 9 0;
#X connect 54 9 10 0;
#X connect 54 10 11 0;
#X connect 54 11 12 0;
#X connect 55 0 13 0;
#X connect 55 1 14 0;
#X connect 55 2 15 0;
#X connect 55 3 16 0;
#X connect 55 4 17 0;
#X connect 55 5 18 0;
#X connect 55 6 19 0;
#X connect 55 7 20 0;
#X connect 55 8 21 0;
#X connect 55 9 22 0;
#X connect 55 10 23 0;
#X connect 55 11 24 0;
#X connect 56 0 26 0;
#X connect 56 1 27 0;
#X connect 56 2 28 0;
#X connect 56 3 29 0;
#X connect 56 4 30 0;
#X connect 56 5 31 0;
#X connect 56 6 32 0;
#X connect 56 7 33 0;
#X connect 56 8 34 0;
#X connect 56 9 35 0;
#X connect 56 10 36 0;
#X connect 56 11 37 0;
#X connect 57 0 39 0;
#X connect 57 1 40 0;
#X connect 57 2 41 0;
#X connect 57 3 42 0;
#X connect 57 4 43 0;
#X connect 57 5 44 0;
#X connect 57 6 45 0;
#X connect 57 7 46 0;
#X connect 57 8 47 0;
#X connect 57 9 48 0;
#X connect 57 10 49 0;
#X connect 57 11 50 0;
#X connect 58 0 59 0;
#X connect 59 0 52 0;
#X restore 467 -633 pd miditobyte;
#X obj 467 -677 stripnote;
#X obj 467 -542 s tocomport;
#X msg 365 -582 6 \$1 \$2;
#X msg 467 -583 8 \$1 \$2;
#N canvas 0 22 1440 802 miditobyte 0;
#X text 30 197 C0-B0;
#X msg 68 262 1 126;
#X msg 113 262 1 104;
#X msg 159 262 1 84;
#X msg 202 262 1 65;
#X msg 248 262 1 47;
#X msg 287 262 1 30;
#X msg 328 262 1 14;
#X msg 368 262 0 255;
#X msg 419 262 0 240;
#X msg 465 262 0 227;
#X msg 511 262 0 214;
#X msg 559 262 0 202;
#X msg 636 262 0 191;
#X msg 681 262 0 180;
#X msg 727 262 0 170;
#X msg 770 262 0 160;
#X msg 816 262 0 151;
#X msg 855 262 0 143;
#X msg 896 262 0 135;
#X msg 936 262 0 127;
#X msg 987 262 0 120;
#X msg 1033 262 0 113;
#X msg 1079 262 0 107;
#X msg 1127 262 0 101;
#X text 598 197 C1-B1;
#X msg 1187 262 0 95;
#X msg 1232 262 0 90;
#X msg 1278 262 0 85;
#X msg 1321 262 0 80;
#X msg 1367 262 0 75;
#X msg 1406 262 0 71;
#X msg 1447 262 0 67;
#X msg 1487 262 0 63;
#X msg 1538 262 0 60;
#X msg 1584 262 0 56;
#X msg 1630 262 0 53;
#X msg 1678 262 0 50;
#X text 1149 197 C2-B2;
#X msg 1764 261 0 47;
#X msg 1809 261 0 45;
#X msg 1855 261 0 42;
#X msg 1898 261 0 40;
#X msg 1944 261 0 37;
#X msg 1983 261 0 35;
#X msg 2024 261 0 33;
#X msg 2064 261 0 31;
#X msg 2115 261 0 30;
#X msg 2161 261 0 28;
#X msg 2207 261 0 26;
#X msg 2255 261 0 25;
#X text 1726 196 C3-B3;
#X obj 68 453 outlet;
#X obj 69 92 inlet;
#X obj 69 197 select 24 25 26 27 28 29 30 31 32 33 34 35;
#X obj 637 197 select 36 37 38 39 40 41 42 43 44 45 46 47;
#X obj 1188 197 select 48 49 50 51 52 53 54 55 56 57 58 59;
#X obj 1765 196 select 60 61 62 63 64 65 66 67 68 69 70 71;
#X obj 2372 57 inlet;
#X msg 2374 171 0 0;
#X connect 1 0 52 0;
#X connect 2 0 52 0;
#X connect 3 0 52 0;
#X connect 4 0 52 0;
#X connect 5 0 52 0;
#X connect 6 0 52 0;
#X connect 7 0 52 0;
#X connect 8 0 52 0;
#X connect 9 0 52 0;
#X connect 10 0 52 0;
#X connect 11 0 52 0;
#X connect 12 0 52 0;
#X connect 13 0 52 0;
#X connect 14 0 52 0;
#X connect 15 0 52 0;
#X connect 16 0 52 0;
#X connect 17 0 52 0;
#X connect 18 0 52 0;
#X connect 19 0 52 0;
#X connect 20 0 52 0;
#X connect 21 0 52 0;
#X connect 22 0 52 0;
#X connect 23 0 52 0;
#X connect 24 0 52 0;
#X connect 26 0 52 0;
#X connect 27 0 52 0;
#X connect 28 0 52 0;
#X connect 29 0 52 0;
#X connect 30 0 52 0;
#X connect 31 0 52 0;
#X connect 32 0 52 0;
#X connect 33 0 52 0;
#X connect 34 0 52 0;
#X connect 35 0 52 0;
#X connect 36 0 52 0;
#X connect 37 0 52 0;
#X connect 39 0 52 0;
#X connect 40 0 52 0;
#X connect 41 0 52 0;
#X connect 42 0 52 0;
#X connect 43 0 52 0;
#X connect 44 0 52 0;
#X connect 45 0 52 0;
#X connect 46 0 52 0;
#X connect 47 0 52 0;
#X connect 48 0 52 0;
#X connect 49 0 52 0;
#X connect 50 0 52 0;
#X connect 53 0 54 0;
#X connect 53 0 55 0;
#X connect 53 0 56 0;
#X connect 53 0 57 0;
#X connect 54 0 1 0;
#X connect 54 1 2 0;
#X connect 54 2 3 0;
#X connect 54 3 4 0;
#X connect 54 4 5 0;
#X connect 54 5 6 0;
#X connect 54 6 7 0;
#X connect 54 7 8 0;
#X connect 54 8 9 0;
#X connect 54 9 10 0;
#X connect 54 10 11 0;
#X connect 54 11 12 0;
#X connect 55 0 13 0;
#X connect 55 1 14 0;
#X connect 55 2 15 0;
#X connect 55 3 16 0;
#X connect 55 4 17 0;
#X connect 55 5 18 0;
#X connect 55 6 19 0;
#X connect 55 7 20 0;
#X connect 55 8 21 0;
#X connect 55 9 22 0;
#X connect 55 10 23 0;
#X connect 55 11 24 0;
#X connect 56 0 26 0;
#X connect 56 1 27 0;
#X connect 56 2 28 0;
#X connect 56 3 29 0;
#X connect 56 4 30 0;
#X connect 56 5 31 0;
#X connect 56 6 32 0;
#X connect 56 7 33 0;
#X connect 56 8 34 0;
#X connect 56 9 35 0;
#X connect 56 10 36 0;
#X connect 56 11 37 0;
#X connect 57 0 39 0;
#X connect 57 1 40 0;
#X connect 57 2 41 0;
#X connect 57 3 42 0;
#X connect 57 4 43 0;
#X connect 57 5 44 0;
#X connect 57 6 45 0;
#X connect 57 7 46 0;
#X connect 57 8 47 0;
#X connect 57 9 48 0;
#X connect 57 10 49 0;
#X connect 57 11 50 0;
#X connect 58 0 59 0;
#X connect 59 0 52 0;
#X restore 583 -636 pd miditobyte;
#X obj 583 -680 stripnote;
#X obj 583 -545 s tocomport;
#N canvas 0 22 1440 802 miditobyte 0;
#X text 30 197 C0-B0;
#X msg 68 262 1 126;
#X msg 113 262 1 104;
#X msg 159 262 1 84;
#X msg 202 262 1 65;
#X msg 248 262 1 47;
#X msg 287 262 1 30;
#X msg 328 262 1 14;
#X msg 368 262 0 255;
#X msg 419 262 0 240;
#X msg 465 262 0 227;
#X msg 511 262 0 214;
#X msg 559 262 0 202;
#X msg 636 262 0 191;
#X msg 681 262 0 180;
#X msg 727 262 0 170;
#X msg 770 262 0 160;
#X msg 816 262 0 151;
#X msg 855 262 0 143;
#X msg 896 262 0 135;
#X msg 936 262 0 127;
#X msg 987 262 0 120;
#X msg 1033 262 0 113;
#X msg 1079 262 0 107;
#X msg 1127 262 0 101;
#X text 598 197 C1-B1;
#X msg 1187 262 0 95;
#X msg 1232 262 0 90;
#X msg 1278 262 0 85;
#X msg 1321 262 0 80;
#X msg 1367 262 0 75;
#X msg 1406 262 0 71;
#X msg 1447 262 0 67;
#X msg 1487 262 0 63;
#X msg 1538 262 0 60;
#X msg 1584 262 0 56;
#X msg 1630 262 0 53;
#X msg 1678 262 0 50;
#X text 1149 197 C2-B2;
#X msg 1764 261 0 47;
#X msg 1809 261 0 45;
#X msg 1855 261 0 42;
#X msg 1898 261 0 40;
#X msg 1944 261 0 37;
#X msg 1983 261 0 35;
#X msg 2024 261 0 33;
#X msg 2064 261 0 31;
#X msg 2115 261 0 30;
#X msg 2161 261 0 28;
#X msg 2207 261 0 26;
#X msg 2255 261 0 25;
#X text 1726 196 C3-B3;
#X obj 68 453 outlet;
#X obj 69 92 inlet;
#X obj 69 197 select 24 25 26 27 28 29 30 31 32 33 34 35;
#X obj 637 197 select 36 37 38 39 40 41 42 43 44 45 46 47;
#X obj 1188 197 select 48 49 50 51 52 53 54 55 56 57 58 59;
#X obj 1765 196 select 60 61 62 63 64 65 66 67 68 69 70 71;
#X obj 2372 57 inlet;
#X msg 2374 171 0 0;
#X connect 1 0 52 0;
#X connect 2 0 52 0;
#X connect 3 0 52 0;
#X connect 4 0 52 0;
#X connect 5 0 52 0;
#X connect 6 0 52 0;
#X connect 7 0 52 0;
#X connect 8 0 52 0;
#X connect 9 0 52 0;
#X connect 10 0 52 0;
#X connect 11 0 52 0;
#X connect 12 0 52 0;
#X connect 13 0 52 0;
#X connect 14 0 52 0;
#X connect 15 0 52 0;
#X connect 16 0 52 0;
#X connect 17 0 52 0;
#X connect 18 0 52 0;
#X connect 19 0 52 0;
#X connect 20 0 52 0;
#X connect 21 0 52 0;
#X connect 22 0 52 0;
#X connect 23 0 52 0;
#X connect 24 0 52 0;
#X connect 26 0 52 0;
#X connect 27 0 52 0;
#X connect 28 0 52 0;
#X connect 29 0 52 0;
#X connect 30 0 52 0;
#X connect 31 0 52 0;
#X connect 32 0 52 0;
#X connect 33 0 52 0;
#X connect 34 0 52 0;
#X connect 35 0 52 0;
#X connect 36 0 52 0;
#X connect 37 0 52 0;
#X connect 39 0 52 0;
#X connect 40 0 52 0;
#X connect 41 0 52 0;
#X connect 42 0 52 0;
#X connect 43 0 52 0;
#X connect 44 0 52 0;
#X connect 45 0 52 0;
#X connect 46 0 52 0;
#X connect 47 0 52 0;
#X connect 48 0 52 0;
#X connect 49 0 52 0;
#X connect 50 0 52 0;
#X connect 53 0 54 0;
#X connect 53 0 55 0;
#X connect 53 0 56 0;
#X connect 53 0 57 0;
#X connect 54 0 1 0;
#X connect 54 1 2 0;
#X connect 54 2 3 0;
#X connect 54 3 4 0;
#X connect 54 4 5 0;
#X connect 54 5 6 0;
#X connect 54 6 7 0;
#X connect 54 7 8 0;
#X connect 54 8 9 0;
#X connect 54 9 10 0;
#X connect 54 10 11 0;
#X connect 54 11 12 0;
#X connect 55 0 13 0;
#X connect 55 1 14 0;
#X connect 55 2 15 0;
#X connect 55 3 16 0;
#X connect 55 4 17 0;
#X connect 55 5 18 0;
#X connect 55 6 19 0;
#X connect 55 7 20 0;
#X connect 55 8 21 0;
#X connect 55 9 22 0;
#X connect 55 10 23 0;
#X connect 55 11 24 0;
#X connect 56 0 26 0;
#X connect 56 1 27 0;
#X connect 56 2 28 0;
#X connect 56 3 29 0;
#X connect 56 4 30 0;
#X connect 56 5 31 0;
#X connect 56 6 32 0;
#X connect 56 7 33 0;
#X connect 56 8 34 0;
#X connect 56 9 35 0;
#X connect 56 10 36 0;
#X connect 56 11 37 0;
#X connect 57 0 39 0;
#X connect 57 1 40 0;
#X connect 57 2 41 0;
#X connect 57 3 42 0;
#X connect 57 4 43 0;
#X connect 57 5 44 0;
#X connect 57 6 45 0;
#X connect 57 7 46 0;
#X connect 57 8 47 0;
#X connect 57 9 48 0;
#X connect 57 10 49 0;
#X connect 57 11 50 0;
#X connect 58 0 59 0;
#X connect 59 0 52 0;
#X restore 685 -637 pd miditobyte;
#X obj 685 -681 stripnote;
#X obj 685 -546 s tocomport;
#N canvas 0 22 1440 802 miditobyte 0;
#X text 30 197 C0-B0;
#X msg 68 262 1 126;
#X msg 113 262 1 104;
#X msg 159 262 1 84;
#X msg 202 262 1 65;
#X msg 248 262 1 47;
#X msg 287 262 1 30;
#X msg 328 262 1 14;
#X msg 368 262 0 255;
#X msg 419 262 0 240;
#X msg 465 262 0 227;
#X msg 511 262 0 214;
#X msg 559 262 0 202;
#X msg 636 262 0 191;
#X msg 681 262 0 180;
#X msg 727 262 0 170;
#X msg 770 262 0 160;
#X msg 816 262 0 151;
#X msg 855 262 0 143;
#X msg 896 262 0 135;
#X msg 936 262 0 127;
#X msg 987 262 0 120;
#X msg 1033 262 0 113;
#X msg 1079 262 0 107;
#X msg 1127 262 0 101;
#X text 598 197 C1-B1;
#X msg 1187 262 0 95;
#X msg 1232 262 0 90;
#X msg 1278 262 0 85;
#X msg 1321 262 0 80;
#X msg 1367 262 0 75;
#X msg 1406 262 0 71;
#X msg 1447 262 0 67;
#X msg 1487 262 0 63;
#X msg 1538 262 0 60;
#X msg 1584 262 0 56;
#X msg 1630 262 0 53;
#X msg 1678 262 0 50;
#X text 1149 197 C2-B2;
#X msg 1764 261 0 47;
#X msg 1809 261 0 45;
#X msg 1855 261 0 42;
#X msg 1898 261 0 40;
#X msg 1944 261 0 37;
#X msg 1983 261 0 35;
#X msg 2024 261 0 33;
#X msg 2064 261 0 31;
#X msg 2115 261 0 30;
#X msg 2161 261 0 28;
#X msg 2207 261 0 26;
#X msg 2255 261 0 25;
#X text 1726 196 C3-B3;
#X obj 68 453 outlet;
#X obj 69 92 inlet;
#X obj 69 197 select 24 25 26 27 28 29 30 31 32 33 34 35;
#X obj 637 197 select 36 37 38 39 40 41 42 43 44 45 46 47;
#X obj 1188 197 select 48 49 50 51 52 53 54 55 56 57 58 59;
#X obj 1765 196 select 60 61 62 63 64 65 66 67 68 69 70 71;
#X obj 2372 57 inlet;
#X msg 2374 171 0 0;
#X connect 1 0 52 0;
#X connect 2 0 52 0;
#X connect 3 0 52 0;
#X connect 4 0 52 0;
#X connect 5 0 52 0;
#X connect 6 0 52 0;
#X connect 7 0 52 0;
#X connect 8 0 52 0;
#X connect 9 0 52 0;
#X connect 10 0 52 0;
#X connect 11 0 52 0;
#X connect 12 0 52 0;
#X connect 13 0 52 0;
#X connect 14 0 52 0;
#X connect 15 0 52 0;
#X connect 16 0 52 0;
#X connect 17 0 52 0;
#X connect 18 0 52 0;
#X connect 19 0 52 0;
#X connect 20 0 52 0;
#X connect 21 0 52 0;
#X connect 22 0 52 0;
#X connect 23 0 52 0;
#X connect 24 0 52 0;
#X connect 26 0 52 0;
#X connect 27 0 52 0;
#X connect 28 0 52 0;
#X connect 29 0 52 0;
#X connect 30 0 52 0;
#X connect 31 0 52 0;
#X connect 32 0 52 0;
#X connect 33 0 52 0;
#X connect 34 0 52 0;
#X connect 35 0 52 0;
#X connect 36 0 52 0;
#X connect 37 0 52 0;
#X connect 39 0 52 0;
#X connect 40 0 52 0;
#X connect 41 0 52 0;
#X connect 42 0 52 0;
#X connect 43 0 52 0;
#X connect 44 0 52 0;
#X connect 45 0 52 0;
#X connect 46 0 52 0;
#X connect 47 0 52 0;
#X connect 48 0 52 0;
#X connect 49 0 52 0;
#X connect 50 0 52 0;
#X connect 53 0 54 0;
#X connect 53 0 55 0;
#X connect 53 0 56 0;
#X connect 53 0 57 0;
#X connect 54 0 1 0;
#X connect 54 1 2 0;
#X connect 54 2 3 0;
#X connect 54 3 4 0;
#X connect 54 4 5 0;
#X connect 54 5 6 0;
#X connect 54 6 7 0;
#X connect 54 7 8 0;
#X connect 54 8 9 0;
#X connect 54 9 10 0;
#X connect 54 10 11 0;
#X connect 54 11 12 0;
#X connect 55 0 13 0;
#X connect 55 1 14 0;
#X connect 55 2 15 0;
#X connect 55 3 16 0;
#X connect 55 4 17 0;
#X connect 55 5 18 0;
#X connect 55 6 19 0;
#X connect 55 7 20 0;
#X connect 55 8 21 0;
#X connect 55 9 22 0;
#X connect 55 10 23 0;
#X connect 55 11 24 0;
#X connect 56 0 26 0;
#X connect 56 1 27 0;
#X connect 56 2 28 0;
#X connect 56 3 29 0;
#X connect 56 4 30 0;
#X connect 56 5 31 0;
#X connect 56 6 32 0;
#X connect 56 7 33 0;
#X connect 56 8 34 0;
#X connect 56 9 35 0;
#X connect 56 10 36 0;
#X connect 56 11 37 0;
#X connect 57 0 39 0;
#X connect 57 1 40 0;
#X connect 57 2 41 0;
#X connect 57 3 42 0;
#X connect 57 4 43 0;
#X connect 57 5 44 0;
#X connect 57 6 45 0;
#X connect 57 7 46 0;
#X connect 57 8 47 0;
#X connect 57 9 48 0;
#X connect 57 10 49 0;
#X connect 57 11 50 0;
#X connect 58 0 59 0;
#X connect 59 0 52 0;
#X restore 797 -636 pd miditobyte;
#X obj 797 -680 stripnote;
#X obj 797 -545 s tocomport;
#N canvas 0 22 1440 802 miditobyte 0;
#X text 30 197 C0-B0;
#X msg 68 262 1 126;
#X msg 113 262 1 104;
#X msg 159 262 1 84;
#X msg 202 262 1 65;
#X msg 248 262 1 47;
#X msg 287 262 1 30;
#X msg 328 262 1 14;
#X msg 368 262 0 255;
#X msg 419 262 0 240;
#X msg 465 262 0 227;
#X msg 511 262 0 214;
#X msg 559 262 0 202;
#X msg 636 262 0 191;
#X msg 681 262 0 180;
#X msg 727 262 0 170;
#X msg 770 262 0 160;
#X msg 816 262 0 151;
#X msg 855 262 0 143;
#X msg 896 262 0 135;
#X msg 936 262 0 127;
#X msg 987 262 0 120;
#X msg 1033 262 0 113;
#X msg 1079 262 0 107;
#X msg 1127 262 0 101;
#X text 598 197 C1-B1;
#X msg 1187 262 0 95;
#X msg 1232 262 0 90;
#X msg 1278 262 0 85;
#X msg 1321 262 0 80;
#X msg 1367 262 0 75;
#X msg 1406 262 0 71;
#X msg 1447 262 0 67;
#X msg 1487 262 0 63;
#X msg 1538 262 0 60;
#X msg 1584 262 0 56;
#X msg 1630 262 0 53;
#X msg 1678 262 0 50;
#X text 1149 197 C2-B2;
#X msg 1764 261 0 47;
#X msg 1809 261 0 45;
#X msg 1855 261 0 42;
#X msg 1898 261 0 40;
#X msg 1944 261 0 37;
#X msg 1983 261 0 35;
#X msg 2024 261 0 33;
#X msg 2064 261 0 31;
#X msg 2115 261 0 30;
#X msg 2161 261 0 28;
#X msg 2207 261 0 26;
#X msg 2255 261 0 25;
#X text 1726 196 C3-B3;
#X obj 68 453 outlet;
#X obj 69 92 inlet;
#X obj 69 197 select 24 25 26 27 28 29 30 31 32 33 34 35;
#X obj 637 197 select 36 37 38 39 40 41 42 43 44 45 46 47;
#X obj 1188 197 select 48 49 50 51 52 53 54 55 56 57 58 59;
#X obj 1765 196 select 60 61 62 63 64 65 66 67 68 69 70 71;
#X obj 2372 57 inlet;
#X msg 2374 171 0 0;
#X connect 1 0 52 0;
#X connect 2 0 52 0;
#X connect 3 0 52 0;
#X connect 4 0 52 0;
#X connect 5 0 52 0;
#X connect 6 0 52 0;
#X connect 7 0 52 0;
#X connect 8 0 52 0;
#X connect 9 0 52 0;
#X connect 10 0 52 0;
#X connect 11 0 52 0;
#X connect 12 0 52 0;
#X connect 13 0 52 0;
#X connect 14 0 52 0;
#X connect 15 0 52 0;
#X connect 16 0 52 0;
#X connect 17 0 52 0;
#X connect 18 0 52 0;
#X connect 19 0 52 0;
#X connect 20 0 52 0;
#X connect 21 0 52 0;
#X connect 22 0 52 0;
#X connect 23 0 52 0;
#X connect 24 0 52 0;
#X connect 26 0 52 0;
#X connect 27 0 52 0;
#X connect 28 0 52 0;
#X connect 29 0 52 0;
#X connect 30 0 52 0;
#X connect 31 0 52 0;
#X connect 32 0 52 0;
#X connect 33 0 52 0;
#X connect 34 0 52 0;
#X connect 35 0 52 0;
#X connect 36 0 52 0;
#X connect 37 0 52 0;
#X connect 39 0 52 0;
#X connect 40 0 52 0;
#X connect 41 0 52 0;
#X connect 42 0 52 0;
#X connect 43 0 52 0;
#X connect 44 0 52 0;
#X connect 45 0 52 0;
#X connect 46 0 52 0;
#X connect 47 0 52 0;
#X connect 48 0 52 0;
#X connect 49 0 52 0;
#X connect 50 0 52 0;
#X connect 53 0 54 0;
#X connect 53 0 55 0;
#X connect 53 0 56 0;
#X connect 53 0 57 0;
#X connect 54 0 1 0;
#X connect 54 1 2 0;
#X connect 54 2 3 0;
#X connect 54 3 4 0;
#X connect 54 4 5 0;
#X connect 54 5 6 0;
#X connect 54 6 7 0;
#X connect 54 7 8 0;
#X connect 54 8 9 0;
#X connect 54 9 10 0;
#X connect 54 10 11 0;
#X connect 54 11 12 0;
#X connect 55 0 13 0;
#X connect 55 1 14 0;
#X connect 55 2 15 0;
#X connect 55 3 16 0;
#X connect 55 4 17 0;
#X connect 55 5 18 0;
#X connect 55 6 19 0;
#X connect 55 7 20 0;
#X connect 55 8 21 0;
#X connect 55 9 22 0;
#X connect 55 10 23 0;
#X connect 55 11 24 0;
#X connect 56 0 26 0;
#X connect 56 1 27 0;
#X connect 56 2 28 0;
#X connect 56 3 29 0;
#X connect 56 4 30 0;
#X connect 56 5 31 0;
#X connect 56 6 32 0;
#X connect 56 7 33 0;
#X connect 56 8 34 0;
#X connect 56 9 35 0;
#X connect 56 10 36 0;
#X connect 56 11 37 0;
#X connect 57 0 39 0;
#X connect 57 1 40 0;
#X connect 57 2 41 0;
#X connect 57 3 42 0;
#X connect 57 4 43 0;
#X connect 57 5 44 0;
#X connect 57 6 45 0;
#X connect 57 7 46 0;
#X connect 57 8 47 0;
#X connect 57 9 48 0;
#X connect 57 10 49 0;
#X connect 57 11 50 0;
#X connect 58 0 59 0;
#X connect 59 0 52 0;
#X restore 899 -637 pd miditobyte;
#X obj 899 -681 stripnote;
#X obj 899 -546 s tocomport;
#X msg 583 -586 10 \$1 \$2;
#X msg 685 -587 12 \$1 \$2;
#X msg 797 -586 14 \$1 \$2;
#X msg 899 -587 16 \$1 \$2;
#X obj 365 -715 notein 3;
#X obj 467 -716 notein 4;
#X obj 583 -719 notein 5;
#X obj 685 -720 notein 6;
#X obj 797 -719 notein 7;
#X obj 899 -720 notein 8;
#X text -53 -658 look inside to see the message which will be send.
1 inlet = Note On Number 2 inlet = Velocity;
#X text 105 -632 -->;
#X text -121 -232 press ports to check the number of your arduino serial
;
#X msg 63 -154 open \$1;
#X floatatom 63 -172 5 0 0 0 - - -;
#X text 352 -308 reset floppy position ->;
#X text -52 -798 Use the original SammyIAm's MOPPY Arduino Sketch from:
https://github.com/SammyIAm/Moppy;
#X connect 0 0 7 0;
#X connect 2 0 1 0;
#X connect 3 0 1 0;
#X connect 4 0 1 0;
#X connect 5 0 3 0;
#X connect 5 1 4 0;
#X connect 5 2 2 0;
#X connect 6 0 5 0;
#X connect 7 0 14 0;
#X connect 8 0 1 0;
#X connect 9 0 1 0;
#X connect 10 0 9 0;
#X connect 11 0 1 0;
#X connect 12 0 13 0;
#X connect 12 1 13 1;
#X connect 13 0 0 0;
#X connect 13 1 0 1;
#X connect 15 0 19 0;
#X connect 16 0 15 0;
#X connect 16 1 15 1;
#X connect 18 0 16 0;
#X connect 18 1 16 1;
#X connect 19 0 17 0;
#X connect 20 0 26 0;
#X connect 21 0 20 0;
#X connect 21 1 20 1;
#X connect 23 0 27 0;
#X connect 24 0 23 0;
#X connect 24 1 23 1;
#X connect 26 0 22 0;
#X connect 27 0 25 0;
#X connect 28 0 40 0;
#X connect 29 0 28 0;
#X connect 29 1 28 1;
#X connect 31 0 41 0;
#X connect 32 0 31 0;
#X connect 32 1 31 1;
#X connect 34 0 42 0;
#X connect 35 0 34 0;
#X connect 35 1 34 1;
#X connect 37 0 43 0;
#X connect 38 0 37 0;
#X connect 38 1 37 1;
#X connect 40 0 30 0;
#X connect 41 0 33 0;
#X connect 42 0 36 0;
#X connect 43 0 39 0;
#X connect 44 0 21 0;
#X connect 44 1 21 1;
#X connect 45 0 24 0;
#X connect 45 1 24 1;
#X connect 46 0 29 0;
#X connect 46 1 29 1;
#X connect 47 0 32 0;
#X connect 47 1 32 1;
#X connect 48 0 35 0;
#X connect 48 1 35 1;
#X connect 49 0 38 0;
#X connect 49 1 38 1;
#X connect 53 0 1 0;
#X connect 54 0 53 0;
